# xmcd CD database file
#
# Track frame offsets:
#	150
#	18988
#	36806
#	59267
#	80513
#	100716
#	118375
#	141162
#	163212
#	181000
#	210531
#	234342
#	260026
#	280402
#	292920
#
# Disc length: 4429 seconds
#
# Revision: 1
# Processed by: cddbd v1.5.2PL0 Copyright (c) Steve Scherf et al.
# Submitted via: CDex 1.82
#
DISCID=d5114b0f
DTITLE=Lucky Peterson - Just Warming Up!
DYEAR=2019
DGENRE=Blues
TTITLE0=50 Years
TTITLE1=Pack It Up
TTITLE2=Dreamin' About You
TTITLE3=Feat.Tamara Tramell_Don't Want Nobody But You
TTITLE4=Repossess Your Love
TTITLE5=Feat.Tamara Tramell_I Will Die 4 U
TTITLE6=Never Make Your Move Too Soon
TTITLE7=Clickety Click
TTITLE8=The Blues Is Driving
TTITLE9=Angel Of Mercy
TTITLE10=Going Where My Roots Come From
TTITLE11=Takin Care Of Mine
TTITLE12=Feat.Danielia Cotton And Sugar Blue_Let The Good Time Party Begin
TTITLE13=Feat.Jakk Jo_Kissin' On My Lips
TTITLE14=Feat.Sharon Riley_Amazing Grace - Precious Lord
EXTD=YEAR: 2019
EXTT0=
EXTT1=
EXTT2=
EXTT3=
EXTT4=
EXTT5=
EXTT6=
EXTT7=
EXTT8=
EXTT9=
EXTT10=
EXTT11=
EXTT12=
EXTT13=
EXTT14=
PLAYORDER=
